<?xml version="1.0" encoding="UTF-8" standalone="no"?>
<!DOCTYPE svg PUBLIC "-//W3C//DTD SVG 1.1//EN"
 "http://www.w3.org/Graphics/SVG/1.1/DTD/svg11.dtd">
<!-- Generated by graphviz version 2.40.1 (20161225.0304)
 -->
<!-- Title: 1 Pages: 1 -->
<svg width="205pt" height="308pt"
 viewBox="0.00 0.00 205.15 308.48" xmlns="http://www.w3.org/2000/svg" xmlns:xlink="http://www.w3.org/1999/xlink">
<g id="graph0" class="graph" transform="scale(1 1) rotate(0) translate(4 304.4751)">
<title>1</title>
<polygon fill="#ffffff" stroke="transparent" points="-4,4 -4,-304.4751 201.1472,-304.4751 201.1472,4 -4,4"/>
<!-- n9 -->
<g id="node1" class="node">
<title>n9</title>
<ellipse fill="none" stroke="#000000" cx="48.7413" cy="-226.4791" rx="19.4965" ry="19.4965"/>
<text text-anchor="middle" x="48.7413" y="-222.7791" font-family="Times,serif" font-size="14.00" fill="#000000">n9</text>
</g>
<!-- n10 -->
<g id="node2" class="node">
<title>n10</title>
<ellipse fill="none" stroke="#000000" cx="118.6438" cy="-276.4273" rx="24.0958" ry="24.0958"/>
<text text-anchor="middle" x="118.6438" y="-272.7273" font-family="Times,serif" font-size="14.00" fill="#000000">n10</text>
</g>
<!-- n9&#45;&#45;n10 -->
<g id="edge1" class="edge">
<title>n9&#45;&#45;n10</title>
<path fill="none" stroke="#000000" d="M64.9541,-238.0638C75.1177,-245.3261 88.2827,-254.733 99.0326,-262.4142"/>
</g>
<!-- n8 -->
<g id="node3" class="node">
<title>n8</title>
<ellipse fill="none" stroke="#000000" cx="96.2539" cy="-119.9494" rx="19.4965" ry="19.4965"/>
<text text-anchor="middle" x="96.2539" y="-116.2494" font-family="Times,serif" font-size="14.00" fill="#000000">n8</text>
</g>
<!-- n8&#45;&#45;n9 -->
<g id="edge3" class="edge">
<title>n8&#45;&#45;n9</title>
<path fill="none" stroke="#000000" d="M88.194,-138.0207C79.4571,-157.6102 65.5931,-188.6951 56.8407,-208.3191"/>
</g>
<!-- n8&#45;&#45;n10 -->
<g id="edge2" class="edge">
<title>n8&#45;&#45;n10</title>
<path fill="none" stroke="#000000" d="M99.0443,-139.4511C103.1473,-168.1255 110.7995,-221.6057 115.2313,-252.5779"/>
</g>
<!-- n7 -->
<g id="node4" class="node">
<title>n7</title>
<ellipse fill="none" stroke="#000000" cx="118.7987" cy="-187.0474" rx="19.4965" ry="19.4965"/>
<text text-anchor="middle" x="118.7987" y="-183.3474" font-family="Times,serif" font-size="14.00" fill="#000000">n7</text>
</g>
<!-- n7&#45;&#45;n9 -->
<g id="edge5" class="edge">
<title>n7&#45;&#45;n9</title>
<path fill="none" stroke="#000000" d="M101.4812,-196.7946C90.6219,-202.9067 76.681,-210.7533 65.8597,-216.8441"/>
</g>
<!-- n7&#45;&#45;n10 -->
<g id="edge4" class="edge">
<title>n7&#45;&#45;n10</title>
<path fill="none" stroke="#000000" d="M118.7643,-206.8837C118.7412,-220.2554 118.7104,-237.9799 118.6858,-252.1882"/>
</g>
<!-- n7&#45;&#45;n8 -->
<g id="edge6" class="edge">
<title>n7&#45;&#45;n8</title>
<path fill="none" stroke="#000000" d="M112.5187,-168.3569C109.3918,-159.0504 105.6225,-147.8324 102.5002,-138.5397"/>
</g>
<!-- n6 -->
<g id="node5" class="node">
<title>n6</title>
<ellipse fill="none" stroke="#000000" cx="177.649" cy="-180.2377" rx="19.4965" ry="19.4965"/>
<text text-anchor="middle" x="177.649" y="-176.5377" font-family="Times,serif" font-size="14.00" fill="#000000">n6</text>
</g>
<!-- n6&#45;&#45;n9 -->
<g id="edge8" class="edge">
<title>n6&#45;&#45;n9</title>
<path fill="none" stroke="#000000" d="M159.1796,-186.863C134.6743,-195.6535 91.6645,-211.0818 67.1764,-219.8661"/>
</g>
<!-- n6&#45;&#45;n10 -->
<g id="edge7" class="edge">
<title>n6&#45;&#45;n10</title>
<path fill="none" stroke="#000000" d="M167.371,-196.9927C157.3335,-213.3558 142.0373,-238.2915 131.2657,-255.8512"/>
</g>
<!-- n6&#45;&#45;n8 -->
<g id="edge9" class="edge">
<title>n6&#45;&#45;n8</title>
<path fill="none" stroke="#000000" d="M161.9552,-168.6135C147.6343,-158.0063 126.5696,-142.4039 112.1772,-131.7437"/>
</g>
<!-- n6&#45;&#45;n7 -->
<g id="edge10" class="edge">
<title>n6&#45;&#45;n7</title>
<path fill="none" stroke="#000000" d="M158.0527,-182.5052C151.7666,-183.2326 144.8044,-184.0382 138.5101,-184.7666"/>
</g>
<!-- n5 -->
<g id="node6" class="node">
<title>n5</title>
<ellipse fill="none" stroke="#000000" cx="32.3762" cy="-168.5517" rx="19.4965" ry="19.4965"/>
<text text-anchor="middle" x="32.3762" y="-164.8517" font-family="Times,serif" font-size="14.00" fill="#000000">n5</text>
</g>
<!-- n5&#45;&#45;n9 -->
<g id="edge12" class="edge">
<title>n5&#45;&#45;n9</title>
<path fill="none" stroke="#000000" d="M37.7347,-187.5193C39.5618,-193.9866 41.603,-201.2117 43.4266,-207.6667"/>
</g>
<!-- n5&#45;&#45;n10 -->
<g id="edge11" class="edge">
<title>n5&#45;&#45;n10</title>
<path fill="none" stroke="#000000" d="M44.7362,-184.0076C60.2039,-203.3496 86.6879,-236.4672 103.3978,-257.3625"/>
</g>
<!-- n5&#45;&#45;n8 -->
<g id="edge13" class="edge">
<title>n5&#45;&#45;n8</title>
<path fill="none" stroke="#000000" d="M48.1662,-156.5377C58.0675,-149.0041 70.7788,-139.3325 80.6455,-131.8253"/>
</g>
<!-- n5&#45;&#45;n7 -->
<g id="edge14" class="edge">
<title>n5&#45;&#45;n7</title>
<path fill="none" stroke="#000000" d="M51.5561,-172.6565C65.8778,-175.7215 85.3636,-179.8918 99.6724,-182.9541"/>
</g>
<!-- n5&#45;&#45;n6 -->
<g id="edge15" class="edge">
<title>n5&#45;&#45;n6</title>
<path fill="none" stroke="#000000" d="M51.9683,-170.1277C79.6946,-172.3581 130.0935,-176.4123 157.9033,-178.6493"/>
</g>
<!-- n4 -->
<g id="node7" class="node">
<title>n4</title>
<ellipse fill="none" stroke="#000000" cx="19.4983" cy="-121.4442" rx="19.4965" ry="19.4965"/>
<text text-anchor="middle" x="19.4983" y="-117.7442" font-family="Times,serif" font-size="14.00" fill="#000000">n4</text>
</g>
<!-- n4&#45;&#45;n9 -->
<g id="edge17" class="edge">
<title>n4&#45;&#45;n9</title>
<path fill="none" stroke="#000000" d="M24.8619,-140.7092C30.1713,-159.7793 38.2473,-188.7868 43.5101,-207.6896"/>
</g>
<!-- n4&#45;&#45;n10 -->
<g id="edge16" class="edge">
<title>n4&#45;&#45;n10</title>
<path fill="none" stroke="#000000" d="M30.1086,-138.0301C48.392,-166.6105 85.7775,-225.051 105.6122,-256.0564"/>
</g>
<!-- n4&#45;&#45;n8 -->
<g id="edge18" class="edge">
<title>n4&#45;&#45;n8</title>
<path fill="none" stroke="#000000" d="M39.2648,-121.0592C50.7247,-120.8361 65.1059,-120.556 76.5544,-120.3331"/>
</g>
<!-- n4&#45;&#45;n7 -->
<g id="edge19" class="edge">
<title>n4&#45;&#45;n7</title>
<path fill="none" stroke="#000000" d="M35.8957,-132.2772C54.2945,-144.4324 83.9682,-164.0365 102.3769,-176.1983"/>
</g>
<!-- n4&#45;&#45;n6 -->
<g id="edge20" class="edge">
<title>n4&#45;&#45;n6</title>
<path fill="none" stroke="#000000" d="M37.9497,-128.3036C68.4237,-139.6325 128.9184,-162.1218 159.3151,-173.422"/>
</g>
<!-- n4&#45;&#45;n5 -->
<g id="edge21" class="edge">
<title>n4&#45;&#45;n5</title>
<path fill="none" stroke="#000000" d="M24.662,-140.3332C25.5017,-143.4048 26.3716,-146.5867 27.2113,-149.6585"/>
</g>
<!-- n3 -->
<g id="node8" class="node">
<title>n3</title>
<ellipse fill="none" stroke="#000000" cx="159.3733" cy="-66.3463" rx="19.4965" ry="19.4965"/>
<text text-anchor="middle" x="159.3733" y="-62.6463" font-family="Times,serif" font-size="14.00" fill="#000000">n3</text>
</g>
<!-- n3&#45;&#45;n9 -->
<g id="edge22" class="edge">
<title>n3&#45;&#45;n9</title>
<path fill="none" stroke="#000000" d="M148.1565,-82.5819C126.9522,-113.2737 81.215,-179.4756 59.9878,-210.2005"/>
</g>
<!-- n3&#45;&#45;n8 -->
<g id="edge23" class="edge">
<title>n3&#45;&#45;n8</title>
<path fill="none" stroke="#000000" d="M144.4149,-79.0495C134.499,-87.4704 121.5264,-98.4872 111.5434,-106.9651"/>
</g>
<!-- n3&#45;&#45;n7 -->
<g id="edge24" class="edge">
<title>n3&#45;&#45;n7</title>
<path fill="none" stroke="#000000" d="M153.1225,-84.9413C145.52,-107.5572 132.7593,-145.5176 125.1235,-168.2324"/>
</g>
<!-- n3&#45;&#45;n6 -->
<g id="edge25" class="edge">
<title>n3&#45;&#45;n6</title>
<path fill="none" stroke="#000000" d="M162.4735,-85.6664C165.8342,-106.6096 171.1669,-139.8426 174.5335,-160.8228"/>
</g>
<!-- n3&#45;&#45;n5 -->
<g id="edge26" class="edge">
<title>n3&#45;&#45;n5</title>
<path fill="none" stroke="#000000" d="M143.801,-78.8787C119.2943,-98.6013 72.0178,-136.6487 47.6792,-156.236"/>
</g>
<!-- n3&#45;&#45;n4 -->
<g id="edge27" class="edge">
<title>n3&#45;&#45;n4</title>
<path fill="none" stroke="#000000" d="M141.0871,-73.5494C114.2801,-84.1088 64.5985,-103.6788 37.789,-114.2393"/>
</g>
<!-- n2 -->
<g id="node9" class="node">
<title>n2</title>
<ellipse fill="none" stroke="#000000" cx="42.0832" cy="-57.4363" rx="19.4965" ry="19.4965"/>
<text text-anchor="middle" x="42.0832" y="-53.7363" font-family="Times,serif" font-size="14.00" fill="#000000">n2</text>
</g>
<!-- n2&#45;&#45;n9 -->
<g id="edge28" class="edge">
<title>n2&#45;&#45;n9</title>
<path fill="none" stroke="#000000" d="M42.86,-77.1585C44.1429,-109.7313 46.6898,-174.3924 47.9695,-206.8825"/>
</g>
<!-- n2&#45;&#45;n8 -->
<g id="edge29" class="edge">
<title>n2&#45;&#45;n8</title>
<path fill="none" stroke="#000000" d="M54.9209,-72.251C63.431,-82.0717 74.5644,-94.9197 83.132,-104.8068"/>
</g>
<!-- n2&#45;&#45;n7 -->
<g id="edge30" class="edge">
<title>n2&#45;&#45;n7</title>
<path fill="none" stroke="#000000" d="M52.1124,-74.3807C66.8149,-99.2205 94.0632,-145.2566 108.7671,-170.0988"/>
</g>
<!-- n2&#45;&#45;n6 -->
<g id="edge31" class="edge">
<title>n2&#45;&#45;n6</title>
<path fill="none" stroke="#000000" d="M56.5911,-70.5782C82.5471,-94.0903 136.6584,-143.1067 162.8344,-166.818"/>
</g>
<!-- n2&#45;&#45;n5 -->
<g id="edge32" class="edge">
<title>n2&#45;&#45;n5</title>
<path fill="none" stroke="#000000" d="M40.3701,-77.0457C38.6067,-97.2318 35.8739,-128.5136 34.1048,-148.7645"/>
</g>
<!-- n2&#45;&#45;n4 -->
<g id="edge33" class="edge">
<title>n2&#45;&#45;n4</title>
<path fill="none" stroke="#000000" d="M35.5507,-75.95C32.5804,-84.3682 29.0722,-94.3106 26.0943,-102.7503"/>
</g>
<!-- n2&#45;&#45;n3 -->
<g id="edge34" class="edge">
<title>n2&#45;&#45;n3</title>
<path fill="none" stroke="#000000" d="M61.7149,-58.9276C83.366,-60.5723 118.0009,-63.2034 139.6775,-64.8501"/>
</g>
<!-- n1 -->
<g id="node10" class="node">
<title>n1</title>
<ellipse fill="none" stroke="#000000" cx="177.2732" cy="-127.8147" rx="19.4965" ry="19.4965"/>
<text text-anchor="middle" x="177.2732" y="-124.1147" font-family="Times,serif" font-size="14.00" fill="#000000">n1</text>
</g>
<!-- n1&#45;&#45;n9 -->
<g id="edge36" class="edge">
<title>n1&#45;&#45;n9</title>
<path fill="none" stroke="#000000" d="M161.7693,-139.7159C137.0649,-158.6797 89.0392,-195.5454 64.3003,-214.5357"/>
</g>
<!-- n1&#45;&#45;n10 -->
<g id="edge35" class="edge">
<title>n1&#45;&#45;n10</title>
<path fill="none" stroke="#000000" d="M170.0841,-146.0375C159.3513,-173.2426 139.1586,-224.4268 127.5205,-253.9268"/>
</g>
<!-- n1&#45;&#45;n8 -->
<g id="edge37" class="edge">
<title>n1&#45;&#45;n8</title>
<path fill="none" stroke="#000000" d="M157.6607,-125.9107C144.9224,-124.6741 128.388,-123.069 115.6858,-121.8359"/>
</g>
<!-- n1&#45;&#45;n7 -->
<g id="edge38" class="edge">
<title>n1&#45;&#45;n7</title>
<path fill="none" stroke="#000000" d="M163.4156,-141.852C154.0943,-151.2942 141.8574,-163.6898 132.5569,-173.1108"/>
</g>
<!-- n1&#45;&#45;n6 -->
<g id="edge39" class="edge">
<title>n1&#45;&#45;n6</title>
<path fill="none" stroke="#000000" d="M177.4131,-147.3351C177.444,-151.6435 177.4767,-156.2103 177.5077,-160.5262"/>
</g>
<!-- n1&#45;&#45;n5 -->
<g id="edge40" class="edge">
<title>n1&#45;&#45;n5</title>
<path fill="none" stroke="#000000" d="M158.3305,-133.1403C130.561,-140.9476 79.0956,-155.4168 51.3236,-163.2247"/>
</g>
<!-- n1&#45;&#45;n4 -->
<g id="edge41" class="edge">
<title>n1&#45;&#45;n4</title>
<path fill="none" stroke="#000000" d="M157.6099,-127.0207C127.2935,-125.7966 69.477,-123.4622 39.1609,-122.2381"/>
</g>
<!-- n1&#45;&#45;n3 -->
<g id="edge42" class="edge">
<title>n1&#45;&#45;n3</title>
<path fill="none" stroke="#000000" d="M171.8054,-109.0381C169.6257,-101.5533 167.1197,-92.9474 164.9312,-85.4321"/>
</g>
<!-- n1&#45;&#45;n2 -->
<g id="edge43" class="edge">
<title>n1&#45;&#45;n2</title>
<path fill="none" stroke="#000000" d="M159.8762,-118.758C133.918,-105.2445 85.3327,-79.9515 59.4134,-66.4582"/>
</g>
<!-- n0 -->
<g id="node11" class="node">
<title>n0</title>
<ellipse fill="none" stroke="#000000" cx="112.3768" cy="-19.4983" rx="19.4965" ry="19.4965"/>
<text text-anchor="middle" x="112.3768" y="-15.7983" font-family="Times,serif" font-size="14.00" fill="#000000">n0</text>
</g>
<!-- n0&#45;&#45;n8 -->
<g id="edge44" class="edge">
<title>n0&#45;&#45;n8</title>
<path fill="none" stroke="#000000" d="M109.2681,-38.8663C106.4131,-56.6539 102.205,-82.8721 99.353,-100.6409"/>
</g>
<!-- n0&#45;&#45;n7 -->
<g id="edge45" class="edge">
<title>n0&#45;&#45;n7</title>
<path fill="none" stroke="#000000" d="M113.126,-39.0462C114.3602,-71.2449 116.8068,-135.0785 118.0443,-167.365"/>
</g>
<!-- n0&#45;&#45;n6 -->
<g id="edge46" class="edge">
<title>n0&#45;&#45;n6</title>
<path fill="none" stroke="#000000" d="M119.7374,-37.6247C132.2735,-68.4959 157.6293,-130.9372 170.215,-161.9309"/>
</g>
<!-- n0&#45;&#45;n5 -->
<g id="edge47" class="edge">
<title>n0&#45;&#45;n5</title>
<path fill="none" stroke="#000000" d="M103.0431,-36.8883C87.6278,-65.6094 57.0265,-122.6243 41.6504,-151.2724"/>
</g>
<!-- n0&#45;&#45;n4 -->
<g id="edge48" class="edge">
<title>n0&#45;&#45;n4</title>
<path fill="none" stroke="#000000" d="M99.0695,-34.1046C81.4134,-53.4845 50.4246,-87.4987 32.7808,-106.8649"/>
</g>
<!-- n0&#45;&#45;n3 -->
<g id="edge49" class="edge">
<title>n0&#45;&#45;n3</title>
<path fill="none" stroke="#000000" d="M126.2231,-33.3008C132.2881,-39.3467 139.3914,-46.4275 145.4636,-52.4805"/>
</g>
<!-- n0&#45;&#45;n2 -->
<g id="edge50" class="edge">
<title>n0&#45;&#45;n2</title>
<path fill="none" stroke="#000000" d="M95.0008,-28.8762C84.105,-34.7568 70.117,-42.3062 59.2593,-48.1662"/>
</g>
<!-- n0&#45;&#45;n1 -->
<g id="edge51" class="edge">
<title>n0&#45;&#45;n1</title>
<path fill="none" stroke="#000000" d="M122.5168,-36.4227C134.7087,-56.7717 155.0443,-90.7132 167.2043,-111.0091"/>
</g>
</g>
</svg>
