<?xml version="1.0" standalone="yes"?>
<!-- SVG graphic -->
<svg xmlns='http://www.w3.org/2000/svg' xmlns:xlink='http://www.w3.org/1999/xlink'
 version="1.1">
<rect x="0" y="0" width="6" height="200" stroke="black" stroke-width="1" fill="blue" tooltip="enable"><title>(0,7312)</title></rect><rect x="6" y="103.282" width="6" height="96.7177" stroke="black" stroke-width="1" fill="blue" tooltip="enable"><title>(0.0408505,3536)</title></rect><rect x="12" y="123.031" width="6" height="76.9694" stroke="black" stroke-width="1" fill="blue" tooltip="enable"><title>(0.0817011,2814)</title></rect><rect x="18" y="131.92" width="6" height="68.0799" stroke="black" stroke-width="1" fill="blue" tooltip="enable"><title>(0.122552,2489)</title></rect><rect x="24" y="141.904" width="6" height="58.0963" stroke="black" stroke-width="1" fill="blue" tooltip="enable"><title>(0.163402,2124)</title></rect><rect x="30" y="153.446" width="6" height="46.5536" stroke="black" stroke-width="1" fill="blue" tooltip="enable"><title>(0.204253,1702)</title></rect><rect x="36" y="161.406" width="6" height="38.5941" stroke="black" stroke-width="1" fill="blue" tooltip="enable"><title>(0.245103,1411)</title></rect><rect x="42" y="167.998" width="6" height="32.0022" stroke="black" stroke-width="1" fill="blue" tooltip="enable"><title>(0.285954,1170)</title></rect><rect x="48" y="171.937" width="6" height="28.0635" stroke="black" stroke-width="1" fill="blue" tooltip="enable"><title>(0.326804,1026)</title></rect><rect x="54" y="177.954" width="6" height="22.046" stroke="black" stroke-width="1" fill="blue" tooltip="enable"><title>(0.367655,806)</title></rect><rect x="60" y="180.388" width="6" height="19.6116" stroke="black" stroke-width="1" fill="blue" tooltip="enable"><title>(0.408505,717)</title></rect><rect x="66" y="183.315" width="6" height="16.6849" stroke="black" stroke-width="1" fill="blue" tooltip="enable"><title>(0.449356,610)</title></rect><rect x="72" y="186.461" width="6" height="13.5394" stroke="black" stroke-width="1" fill="blue" tooltip="enable"><title>(0.490207,495)</title></rect><rect x="78" y="188.567" width="6" height="11.4333" stroke="black" stroke-width="1" fill="blue" tooltip="enable"><title>(0.531057,418)</title></rect><rect x="84" y="190.153" width="6" height="9.84683" stroke="black" stroke-width="1" fill="blue" tooltip="enable"><title>(0.571908,360)</title></rect><rect x="90" y="191.357" width="6" height="8.64333" stroke="black" stroke-width="1" fill="blue" tooltip="enable"><title>(0.612758,316)</title></rect><rect x="96" y="192.943" width="6" height="7.05689" stroke="black" stroke-width="1" fill="blue" tooltip="enable"><title>(0.653609,258)</title></rect><rect x="102" y="193.846" width="6" height="6.15427" stroke="black" stroke-width="1" fill="blue" tooltip="enable"><title>(0.694459,225)</title></rect><rect x="108" y="194.229" width="6" height="5.77133" stroke="black" stroke-width="1" fill="blue" tooltip="enable"><title>(0.73531,211)</title></rect><rect x="114" y="194.311" width="6" height="5.68928" stroke="black" stroke-width="1" fill="blue" tooltip="enable"><title>(0.77616,208)</title></rect><rect x="120" y="195.46" width="6" height="4.54048" stroke="black" stroke-width="1" fill="blue" tooltip="enable"><title>(0.817011,166)</title></rect><rect x="126" y="195.897" width="6" height="4.10284" stroke="black" stroke-width="1" fill="blue" tooltip="enable"><title>(0.857861,150)</title></rect><rect x="132" y="196.827" width="6" height="3.17287" stroke="black" stroke-width="1" fill="blue" tooltip="enable"><title>(0.898712,116)</title></rect><rect x="138" y="197.155" width="6" height="2.84464" stroke="black" stroke-width="1" fill="blue" tooltip="enable"><title>(0.939562,104)</title></rect><rect x="144" y="197.374" width="6" height="2.62582" stroke="black" stroke-width="1" fill="blue" tooltip="enable"><title>(0.980413,96)</title></rect><rect x="150" y="197.237" width="6" height="2.76258" stroke="black" stroke-width="1" fill="blue" tooltip="enable"><title>(1.02126,101)</title></rect><rect x="156" y="197.675" width="6" height="2.32495" stroke="black" stroke-width="1" fill="blue" tooltip="enable"><title>(1.06211,85)</title></rect><rect x="162" y="197.648" width="6" height="2.3523" stroke="black" stroke-width="1" fill="blue" tooltip="enable"><title>(1.10296,86)</title></rect><rect x="168" y="197.839" width="6" height="2.16083" stroke="black" stroke-width="1" fill="blue" tooltip="enable"><title>(1.14382,79)</title></rect><rect x="174" y="198.332" width="6" height="1.66849" stroke="black" stroke-width="1" fill="blue" tooltip="enable"><title>(1.18467,61)</title></rect><rect x="180" y="198.632" width="6" height="1.36761" stroke="black" stroke-width="1" fill="blue" tooltip="enable"><title>(1.22552,50)</title></rect><rect x="186" y="198.769" width="6" height="1.23085" stroke="black" stroke-width="1" fill="blue" tooltip="enable"><title>(1.26637,45)</title></rect><rect x="192" y="198.714" width="6" height="1.28556" stroke="black" stroke-width="1" fill="blue" tooltip="enable"><title>(1.30722,47)</title></rect><rect x="198" y="199.125" width="6" height="0.875274" stroke="black" stroke-width="1" fill="blue" tooltip="enable"><title>(1.34807,32)</title></rect><rect x="204" y="199.289" width="6" height="0.71116" stroke="black" stroke-width="1" fill="blue" tooltip="enable"><title>(1.38892,26)</title></rect><rect x="210" y="198.824" width="6" height="1.17615" stroke="black" stroke-width="1" fill="blue" tooltip="enable"><title>(1.42977,43)</title></rect><rect x="216" y="199.07" width="6" height="0.929978" stroke="black" stroke-width="1" fill="blue" tooltip="enable"><title>(1.47062,34)</title></rect><rect x="222" y="199.207" width="6" height="0.793217" stroke="black" stroke-width="1" fill="blue" tooltip="enable"><title>(1.51147,29)</title></rect><rect x="228" y="199.426" width="6" height="0.574398" stroke="black" stroke-width="1" fill="blue" tooltip="enable"><title>(1.55232,21)</title></rect><rect x="234" y="199.508" width="6" height="0.492341" stroke="black" stroke-width="1" fill="blue" tooltip="enable"><title>(1.59317,18)</title></rect><rect x="240" y="199.316" width="6" height="0.683807" stroke="black" stroke-width="1" fill="blue" tooltip="enable"><title>(1.63402,25)</title></rect><rect x="246" y="199.371" width="6" height="0.629103" stroke="black" stroke-width="1" fill="blue" tooltip="enable"><title>(1.67487,23)</title></rect><rect x="252" y="199.316" width="6" height="0.683807" stroke="black" stroke-width="1" fill="blue" tooltip="enable"><title>(1.71572,25)</title></rect><rect x="258" y="199.644" width="6" height="0.35558" stroke="black" stroke-width="1" fill="blue" tooltip="enable"><title>(1.75657,13)</title></rect><rect x="264" y="199.617" width="6" height="0.382932" stroke="black" stroke-width="1" fill="blue" tooltip="enable"><title>(1.79742,14)</title></rect><rect x="270" y="199.644" width="6" height="0.35558" stroke="black" stroke-width="1" fill="blue" tooltip="enable"><title>(1.83827,13)</title></rect><rect x="276" y="199.562" width="6" height="0.437637" stroke="black" stroke-width="1" fill="blue" tooltip="enable"><title>(1.87912,16)</title></rect><rect x="282" y="199.781" width="6" height="0.218818" stroke="black" stroke-width="1" fill="blue" tooltip="enable"><title>(1.91998,8)</title></rect><rect x="288" y="199.781" width="6" height="0.218818" stroke="black" stroke-width="1" fill="blue" tooltip="enable"><title>(1.96083,8)</title></rect><rect x="294" y="199.809" width="6" height="0.191466" stroke="black" stroke-width="1" fill="blue" tooltip="enable"><title>(2.00168,7)</title></rect><rect x="300" y="199.726" width="6" height="0.273523" stroke="black" stroke-width="1" fill="blue" tooltip="enable"><title>(2.04253,10)</title></rect><rect x="306" y="199.726" width="6" height="0.273523" stroke="black" stroke-width="1" fill="blue" tooltip="enable"><title>(2.08338,10)</title></rect><rect x="312" y="199.836" width="6" height="0.164114" stroke="black" stroke-width="1" fill="blue" tooltip="enable"><title>(2.12423,6)</title></rect><rect x="318" y="199.726" width="6" height="0.273523" stroke="black" stroke-width="1" fill="blue" tooltip="enable"><title>(2.16508,10)</title></rect><rect x="324" y="199.945" width="6" height="0.0547046" stroke="black" stroke-width="1" fill="blue" tooltip="enable"><title>(2.20593,2)</title></rect><rect x="330" y="199.781" width="6" height="0.218818" stroke="black" stroke-width="1" fill="blue" tooltip="enable"><title>(2.24678,8)</title></rect><rect x="336" y="199.863" width="6" height="0.136761" stroke="black" stroke-width="1" fill="blue" tooltip="enable"><title>(2.28763,5)</title></rect><rect x="342" y="199.836" width="6" height="0.164114" stroke="black" stroke-width="1" fill="blue" tooltip="enable"><title>(2.32848,6)</title></rect><rect x="348" y="199.891" width="6" height="0.109409" stroke="black" stroke-width="1" fill="blue" tooltip="enable"><title>(2.36933,4)</title></rect><rect x="354" y="199.945" width="6" height="0.0547046" stroke="black" stroke-width="1" fill="blue" tooltip="enable"><title>(2.41018,2)</title></rect><rect x="360" y="199.918" width="6" height="0.0820569" stroke="black" stroke-width="1" fill="blue" tooltip="enable"><title>(2.45103,3)</title></rect><rect x="366" y="199.945" width="6" height="0.0547046" stroke="black" stroke-width="1" fill="blue" tooltip="enable"><title>(2.49188,2)</title></rect><rect x="372" y="199.809" width="6" height="0.191466" stroke="black" stroke-width="1" fill="blue" tooltip="enable"><title>(2.53273,7)</title></rect><rect x="378" y="199.945" width="6" height="0.0547046" stroke="black" stroke-width="1" fill="blue" tooltip="enable"><title>(2.57358,2)</title></rect><rect x="384" y="199.863" width="6" height="0.136761" stroke="black" stroke-width="1" fill="blue" tooltip="enable"><title>(2.61443,5)</title></rect><rect x="390" y="199.945" width="6" height="0.0547046" stroke="black" stroke-width="1" fill="blue" tooltip="enable"><title>(2.65529,2)</title></rect><rect x="396" y="199.945" width="6" height="0.0547046" stroke="black" stroke-width="1" fill="blue" tooltip="enable"><title>(2.69614,2)</title></rect><rect x="402" y="199.973" width="6" height="0.0273523" stroke="black" stroke-width="1" fill="blue" tooltip="enable"><title>(2.73699,1)</title></rect><rect x="408" y="199.973" width="6" height="0.0273523" stroke="black" stroke-width="1" fill="blue" tooltip="enable"><title>(2.77784,1)</title></rect><rect x="414" y="199.918" width="6" height="0.0820569" stroke="black" stroke-width="1" fill="blue" tooltip="enable"><title>(2.81869,3)</title></rect><rect x="420" y="199.973" width="6" height="0.0273523" stroke="black" stroke-width="1" fill="blue" tooltip="enable"><title>(2.85954,1)</title></rect><rect x="426" y="199.891" width="6" height="0.109409" stroke="black" stroke-width="1" fill="blue" tooltip="enable"><title>(2.90039,4)</title></rect><rect x="432" y="199.891" width="6" height="0.109409" stroke="black" stroke-width="1" fill="blue" tooltip="enable"><title>(2.94124,4)</title></rect><rect x="438" y="199.945" width="6" height="0.0547046" stroke="black" stroke-width="1" fill="blue" tooltip="enable"><title>(2.98209,2)</title></rect><rect x="444" y="199.918" width="6" height="0.0820569" stroke="black" stroke-width="1" fill="blue" tooltip="enable"><title>(3.02294,3)</title></rect><rect x="450" y="199.918" width="6" height="0.0820569" stroke="black" stroke-width="1" fill="blue" tooltip="enable"><title>(3.06379,3)</title></rect><rect x="456" y="200" width="6" height="0" stroke="black" stroke-width="1" fill="blue" tooltip="enable"><title>(3.10464,0)</title></rect><rect x="462" y="199.918" width="6" height="0.0820569" stroke="black" stroke-width="1" fill="blue" tooltip="enable"><title>(3.14549,3)</title></rect><rect x="468" y="200" width="6" height="0" stroke="black" stroke-width="1" fill="blue" tooltip="enable"><title>(3.18634,0)</title></rect><rect x="474" y="199.918" width="6" height="0.0820569" stroke="black" stroke-width="1" fill="blue" tooltip="enable"><title>(3.22719,3)</title></rect><rect x="480" y="199.945" width="6" height="0.0547046" stroke="black" stroke-width="1" fill="blue" tooltip="enable"><title>(3.26804,2)</title></rect><rect x="486" y="200" width="6" height="0" stroke="black" stroke-width="1" fill="blue" tooltip="enable"><title>(3.30889,0)</title></rect><rect x="492" y="199.973" width="6" height="0.0273523" stroke="black" stroke-width="1" fill="blue" tooltip="enable"><title>(3.34974,1)</title></rect><rect x="498" y="199.945" width="6" height="0.0547046" stroke="black" stroke-width="1" fill="blue" tooltip="enable"><title>(3.3906,2)</title></rect><rect x="504" y="200" width="6" height="0" stroke="black" stroke-width="1" fill="blue" tooltip="enable"><title>(3.43145,0)</title></rect><rect x="510" y="199.973" width="6" height="0.0273523" stroke="black" stroke-width="1" fill="blue" tooltip="enable"><title>(3.4723,1)</title></rect><rect x="516" y="200" width="6" height="0" stroke="black" stroke-width="1" fill="blue" tooltip="enable"><title>(3.51315,0)</title></rect><rect x="522" y="200" width="6" height="0" stroke="black" stroke-width="1" fill="blue" tooltip="enable"><title>(3.554,0)</title></rect><rect x="528" y="200" width="6" height="0" stroke="black" stroke-width="1" fill="blue" tooltip="enable"><title>(3.59485,0)</title></rect><rect x="534" y="199.918" width="6" height="0.0820569" stroke="black" stroke-width="1" fill="blue" tooltip="enable"><title>(3.6357,3)</title></rect><rect x="540" y="200" width="6" height="0" stroke="black" stroke-width="1" fill="blue" tooltip="enable"><title>(3.67655,0)</title></rect><rect x="546" y="199.973" width="6" height="0.0273523" stroke="black" stroke-width="1" fill="blue" tooltip="enable"><title>(3.7174,1)</title></rect><rect x="552" y="200" width="6" height="0" stroke="black" stroke-width="1" fill="blue" tooltip="enable"><title>(3.75825,0)</title></rect><rect x="558" y="199.945" width="6" height="0.0547046" stroke="black" stroke-width="1" fill="blue" tooltip="enable"><title>(3.7991,2)</title></rect><rect x="564" y="199.945" width="6" height="0.0547046" stroke="black" stroke-width="1" fill="blue" tooltip="enable"><title>(3.83995,2)</title></rect><rect x="570" y="200" width="6" height="0" stroke="black" stroke-width="1" fill="blue" tooltip="enable"><title>(3.8808,0)</title></rect><rect x="576" y="199.973" width="6" height="0.0273523" stroke="black" stroke-width="1" fill="blue" tooltip="enable"><title>(3.92165,1)</title></rect><rect x="582" y="200" width="6" height="0" stroke="black" stroke-width="1" fill="blue" tooltip="enable"><title>(3.9625,0)</title></rect><rect x="588" y="200" width="6" height="0" stroke="black" stroke-width="1" fill="blue" tooltip="enable"><title>(4.00335,0)</title></rect><rect x="594" y="199.973" width="6" height="0.0273523" stroke="black" stroke-width="1" fill="blue" tooltip="enable"><title>(4.0442,1)</title></rect><text x="30" y="240" font-size="20" fill="black">0</text>
<text x="600" y="240" font-size="20" fill="black">4.08505</text>
<polyline points="0,220,600,220" stroke="black" stroke-width="1" fill="none"/>
<text x="720" y="20" font-size="20" fill="black">7312</text>
<text x="720" y="200" font-size="20" fill="black">0</text>
<polyline points="660,0,660,200" stroke="black" stroke-width="1" fill="none"/>
</svg>